<svg xmlns="http://www.w3.org/2000/svg" height="24" width="24"><path d="M12 12Zm0 9q-1.875 0-3.512-.712-1.638-.713-2.85-1.926-1.213-1.212-1.926-2.85Q3 13.875 3 12t.712-3.513q.713-1.637 1.926-2.85 1.212-1.212 2.85-1.925Q10.125 3 12 3q1 0 1.938.2.937.2 1.787.6v1.125q-.825-.45-1.762-.688Q13.025 4 12 4 8.675 4 6.338 6.337 4 8.675 4 12t2.338 5.663Q8.675 20 12 20q3.325 0 5.663-2.337Q20 15.325 20 12q0-.725-.125-1.413-.125-.687-.35-1.312H20.6q.2.65.3 1.325.1.675.1 1.4 0 1.875-.712 3.512-.713 1.638-1.925 2.85-1.213 1.213-2.85 1.926Q13.875 21 12 21Zm8.5-14.5v-2h-2v-1h2v-2h1v2h2v1h-2v2Zm-5.2 4.125q.475 0 .8-.338.325-.337.325-.787 0-.475-.325-.8-.325-.325-.8-.325-.475 0-.787.337-.313.338-.313.788 0 .475.325.8.325.325.775.325Zm-6.6 0q.475 0 .788-.338Q9.8 9.95 9.8 9.5q0-.475-.325-.8-.325-.325-.775-.325-.475 0-.8.337-.325.338-.325.788 0 .475.325.8.325.325.8.325Zm3.3 6.25q1.425 0 2.638-.788Q15.85 15.3 16.45 14h-8.9q.6 1.3 1.813 2.087 1.212.788 2.637.788Z"/></svg>