<svg xmlns="http://www.w3.org/2000/svg" height="20" width="20"><path d="M13.125 8.958v-.416h3.917v.416ZM8 9.333q-.812 0-1.365-.552-.552-.552-.552-1.364 0-.813.552-1.365Q7.188 5.5 8 5.5q.812 0 1.365.552.552.552.552 1.365 0 .812-.552 1.364-.553.552-1.365.552ZM3.083 14.5v-.667q0-.291.177-.552.178-.26.511-.448 1-.562 2.073-.864 1.073-.302 2.156-.302 1.083 0 2.156.302 1.073.302 2.073.864.333.188.511.448.177.261.177.552v.667Zm.417-.417h9v-.25q0-.187-.146-.375-.146-.187-.416-.333-.855-.479-1.865-.76-1.011-.282-2.073-.282t-2.073.282q-1.01.281-1.865.76-.27.146-.416.333-.146.188-.146.375ZM8 8.917q.625 0 1.062-.438.438-.437.438-1.062t-.438-1.063Q8.625 5.917 8 5.917t-1.062.437Q6.5 6.792 6.5 7.417t.438 1.062q.437.438 1.062.438Zm0-1.521Zm0 6.687Z"/></svg>